<?xml version="1.0" standalone="no"?>
<!DOCTYPE svg PUBLIC "-//W3C//DTD SVG 20010904//EN"
    "http://www.w3.org/TR/2001/REC-SVG-20010904/DTD/svg10.dtd">
<svg version="1.0" xmlns="http://www.w3.org/2000/svg"
    width="412.000000pt" height="501.000000pt" viewBox="0 0 412.000000 501.000000"
    preserveAspectRatio="xMidYMid meet">

    <g transform="translate(0.000000,501.000000) scale(0.100000,-0.100000)"
        fill="#000000" stroke="none">
        <path d="M1190 4413 c-60 -13 -154 -65 -209 -117 -63 -61 -103 -126 -127 -206
l-15 -51 -37 8 c-20 4 -71 7 -113 6 -60 -1 -88 -7 -142 -31 -79 -36 -162 -115
-195 -184 -38 -82 -43 -161 -40 -604 3 -460 2 -451 68 -534 25 -32 60 -54 160
-100 13 -6 16 -117 20 -881 l5 -874 22 -48 c28 -60 105 -143 158 -169 92 -48
95 -48 905 -48 811 0 813 0 906 48 50 26 120 94 145 144 27 52 49 143 49 200
l0 48 253 0 c327 0 384 13 492 111 61 56 114 151 141 254 18 65 19 117 19 700
0 698 1 691 -68 832 -40 84 -132 172 -212 204 -58 23 -71 24 -341 27 l-282 3
-4 157 c-2 97 -8 165 -16 179 -10 18 -7 31 20 85 29 57 32 71 32 159 1 89 -2
100 -32 161 -42 82 -108 147 -192 189 -58 29 -74 33 -155 33 -55 1 -103 -4
-122 -13 -32 -13 -34 -12 -83 32 -96 86 -197 127 -317 127 -65 0 -138 -16
-183 -40 -18 -10 -24 -7 -43 17 -45 60 -105 107 -177 141 -67 31 -85 35 -170
38 -52 1 -106 0 -120 -3z m242 -176 c56 -32 90 -72 128 -147 41 -81 79 -91
161 -40 63 39 127 54 195 47 95 -10 150 -47 237 -161 33 -42 66 -47 125 -17
74 38 117 44 182 25 98 -27 170 -120 170 -218 0 -34 -34 -116 -53 -128 -7 -4
-134 -8 -284 -8 -181 0 -280 -4 -297 -11 -35 -16 -44 -48 -49 -174 -4 -93 -8
-118 -30 -160 -52 -102 -141 -157 -256 -157 -128 -1 -235 75 -276 197 -11 32
-31 66 -44 76 -48 38 -81 22 -153 -73 -38 -50 -100 -78 -174 -78 -59 0 -99 15
-172 61 -37 24 -71 20 -101 -12 -18 -19 -20 -39 -23 -226 l-3 -205 -37 -34
c-32 -28 -45 -34 -84 -34 -61 0 -109 44 -119 111 -3 24 -5 224 -3 444 3 396 3
400 26 448 69 139 240 171 366 67 52 -43 79 -49 114 -24 34 23 41 53 30 114
-14 78 -2 149 35 211 63 103 136 141 263 136 66 -3 89 -8 126 -30z m1148
-2072 c0 -1375 3 -1301 -55 -1360 -58 -57 -28 -55 -874 -55 -458 0 -790 4
-804 9 -39 15 -97 71 -112 109 -13 29 -15 165 -15 898 l0 863 29 15 c42 22 97
91 115 144 11 30 16 82 16 153 0 59 4 110 8 113 5 3 37 0 73 -6 79 -14 173 6
257 53 l54 30 53 -59 c83 -91 217 -152 333 -152 62 0 149 20 209 50 64 30 156
121 192 189 33 63 61 168 61 234 l0 37 230 0 230 0 0 -1265z m699 814 c69 -14
141 -79 169 -151 48 -121 47 -110 44 -738 -4 -651 -6 -679 -62 -777 -67 -117
-120 -133 -442 -133 l-238 0 0 144 0 143 138 5 c129 4 141 6 192 34 65 35 110
90 136 170 17 54 19 90 19 414 0 394 -3 419 -69 507 -62 82 -115 101 -283 102
l-133 1 0 145 0 145 240 0 c133 0 261 -5 289 -11z m-255 -468 c48 -45 51 -71
51 -431 0 -315 -1 -337 -20 -375 -31 -62 -69 -76 -195 -73 l-105 3 -3 454 -2
453 124 -3 c115 -4 126 -6 150 -28z"/>

        <path d="M1083 2745 c-17 -7 -36 -22 -42 -34 -8 -13 -11 -235 -11 -709 l0
-689 25 -27 c32 -34 77 -35 110 -1 l25 24 0 699 0 699 -22 20 c-33 29 -50 33
-85 18z"/>
        <path d="M1627 2745 c-17 -7 -36 -22 -42 -34 -8 -13 -11 -235 -11 -709 l0
-689 25 -27 c32 -34 77 -35 110 -1 l25 24 0 699 0 699 -22 20 c-33 29 -50 33
-85 18z"/>
        <path d="M2172 2745 c-17 -7 -36 -22 -42 -34 -8 -13 -11 -235 -11 -709 l0
-689 25 -27 c32 -34 77 -35 110 -1 l25 24 0 699 0 699 -22 20 c-33 29 -50 33
-85 18z"/>
    </g>
</svg>
