<?xml version="1.0" encoding="utf-8"?>
<!-- Generator: Adobe Illustrator 24.3.0, SVG Export Plug-In . SVG Version: 6.00 Build 0)  -->
<svg version="1.1" id="Layer_1" xmlns="http://www.w3.org/2000/svg" xmlns:xlink="http://www.w3.org/1999/xlink" x="0px" y="0px"
	 viewBox="0 0 32 32" enable-background="new 0 0 32 32" xml:space="preserve">
<g>
	<g>
		<path d="M17.5,29.5c-0.276,0-0.5-0.224-0.5-0.5v-5c0-0.276,0.224-0.5,0.5-0.5S18,23.724,18,24v5C18,29.276,17.776,29.5,17.5,29.5z
			"/>
	</g>
	<g>
		<path d="M22,30h-9c-0.276,0-0.5-0.224-0.5-0.5S12.724,29,13,29h9c0.276,0,0.5,0.224,0.5,0.5S22.276,30,22,30z"/>
	</g>
	<g>
		<path d="M10.854,14.75c-2.952,0-5.354-2.402-5.354-5.354s2.402-5.354,5.354-5.354s5.354,2.401,5.354,5.354
			c0,0.276-0.224,0.5-0.5,0.5s-0.5-0.224-0.5-0.5c0-2.4-1.953-4.354-4.354-4.354C8.453,5.042,6.5,6.995,6.5,9.396
			c0,2.401,1.953,4.354,4.354,4.354c0.819,0,1.616-0.229,2.306-0.66c0.235-0.146,0.543-0.075,0.689,0.158
			c0.146,0.234,0.075,0.543-0.158,0.689C12.843,14.469,11.861,14.75,10.854,14.75z"/>
	</g>
	<g>
		<path d="M17.442,24.489L17.442,24.489c-0.385,0-0.775-0.041-1.16-0.121c-2.132-0.445-3.808-2.194-4.171-4.354
			c-0.217-1.291,0.013-2.56,0.662-3.667c0.843-1.435,0.602-3.266-0.587-4.454l-0.52-0.52c-0.405-0.405-0.521-0.986-0.302-1.516
			S12.077,9,12.65,9h9.583c0.572,0,1.064,0.329,1.284,0.857c0.22,0.53,0.104,1.11-0.301,1.517l-0.518,0.518
			c-1.181,1.18-1.394,3.013-0.53,4.562c0.446,0.8,0.682,1.708,0.682,2.627c0,1.445-0.562,2.804-1.584,3.825
			S18.887,24.489,17.442,24.489z M12.65,10c-0.242,0-0.338,0.185-0.361,0.241c-0.023,0.057-0.087,0.254,0.085,0.426l0.52,0.52
			c1.511,1.511,1.816,3.841,0.742,5.667c-0.529,0.903-0.716,1.938-0.538,2.995c0.295,1.756,1.657,3.179,3.39,3.541
			c1.499,0.313,3.016-0.135,4.072-1.191c0.832-0.833,1.291-1.94,1.291-3.118c0-0.749-0.191-1.489-0.555-2.141
			c-1.083-1.943-0.804-4.256,0.696-5.755l0.518-0.518c0.171-0.171,0.107-0.369,0.084-0.426S22.476,10,22.233,10H12.65z"/>
	</g>
	<g>
		<path d="M22,19h-9c-0.276,0-0.5-0.224-0.5-0.5S12.724,18,13,18h9c0.276,0,0.5,0.224,0.5,0.5S22.276,19,22,19z"/>
	</g>
	<g>
		<path d="M16.381,19c-0.065,0-0.132-0.013-0.195-0.04c-0.254-0.107-0.373-0.401-0.265-0.655L22.666,2.43
			c0.108-0.254,0.402-0.373,0.655-0.265c0.254,0.107,0.373,0.401,0.265,0.655l-6.745,15.875C16.76,18.886,16.575,19,16.381,19z"/>
	</g>
</g>
</svg>
