<?xml version="1.0" encoding="utf-8"?>
<!-- Generator: Adobe Illustrator 24.3.0, SVG Export Plug-In . SVG Version: 6.00 Build 0)  -->
<svg version="1.1" id="Layer_1" xmlns="http://www.w3.org/2000/svg" xmlns:xlink="http://www.w3.org/1999/xlink" x="0px" y="0px"
	 viewBox="0 0 32 32" enable-background="new 0 0 32 32" xml:space="preserve">
<g>
	<g>
		<path d="M15.572,19.625h-0.144c-2.029,0-3.936-0.79-5.37-2.225c-1.764-1.764-2.48-4.394-1.871-6.863l1.661-6.731
			c0.055-0.223,0.255-0.38,0.485-0.38h10.333c0.23,0,0.43,0.157,0.485,0.38l1.661,6.731c0.609,2.47-0.107,5.1-1.871,6.863
			C19.508,18.835,17.601,19.625,15.572,19.625z M10.725,4.426l-1.567,6.352c-0.526,2.132,0.09,4.398,1.607,5.916
			c1.245,1.246,2.901,1.932,4.663,1.932h0.144c1.762,0,3.418-0.686,4.663-1.932c1.518-1.518,2.133-3.784,1.607-5.916l-1.567-6.352
			H10.725z"/>
	</g>
	<g>
		<path d="M15.5,28.5c-0.276,0-0.5-0.224-0.5-0.5v-8c0-0.276,0.224-0.5,0.5-0.5S16,19.724,16,20v8C16,28.276,15.776,28.5,15.5,28.5z
			"/>
	</g>
	<g>
		<path d="M21,29H10c-0.276,0-0.5-0.224-0.5-0.5S9.724,28,10,28h11c0.276,0,0.5,0.224,0.5,0.5S21.276,29,21,29z"/>
	</g>
	<g>
		<path d="M22.279,14.045c-1.295,0-1.964-0.519-2.554-0.976c-0.531-0.411-0.989-0.767-1.942-0.767s-1.411,0.355-1.942,0.767
			c-0.59,0.457-1.259,0.976-2.554,0.976c-1.294,0-1.963-0.519-2.553-0.976c-0.53-0.411-0.988-0.767-1.94-0.767
			c-0.276,0-0.5-0.224-0.5-0.5s0.224-0.5,0.5-0.5c1.294,0,1.963,0.519,2.553,0.976c0.53,0.411,0.988,0.767,1.94,0.767
			c0.953,0,1.411-0.355,1.942-0.767c0.59-0.457,1.259-0.976,2.554-0.976s1.964,0.519,2.554,0.976
			c0.531,0.411,0.989,0.767,1.942,0.767c0.276,0,0.5,0.224,0.5,0.5S22.556,14.045,22.279,14.045z"/>
	</g>
</g>
</svg>
